<svg xmlns:dc="http://purl.org/dc/elements/1.1/" xmlns:cc="http://creativecommons.org/ns#" xmlns:rdf="http://www.w3.org/1999/02/22-rdf-syntax-ns#" xmlns:svg="http://www.w3.org/2000/svg" xmlns="http://www.w3.org/2000/svg" xmlns:sodipodi="http://sodipodi.sourceforge.net/DTD/sodipodi-0.dtd" xmlns:inkscape="http://www.inkscape.org/namespaces/inkscape" width="100" height="100" viewBox="0 0 80 80" version="1.1" id="svg2" inkscape:version="0.48.2 r9819">
  <metadata id="metadata10">
    <rdf:RDF>
      <cc:Work rdf:about="">
        <dc:format>image/svg+xml</dc:format>
        <dc:type rdf:resource="http://purl.org/dc/dcmitype/StillImage"/>
        <dc:title/>
      </cc:Work>
    </rdf:RDF>
  </metadata>
  <defs id="defs8"/>
  <path style="fill:red;stroke:none" d="m32.2 22.7 c3 0.3 7.5 -1.8 10.6 -2.1 5.2 -0.5 11.4 1.5 14 5.9 5.1 8.7 1.8 21.4 -3.3 30.2 C50.6 61.4 45.4 65.5 39.9 66.2 37.9 66.5 36.2 64.4 34.2 64.2 32.9 64.1 31.4 65.3 30.1 64.8 25.5 63.3 22.9 58.5 19.9 54.8 15.8 49.5 13.1 42.7 15.4 34.2 17 28.2 22.7 21.8 32.2 22.7 z" id="path3874" inkscape:connector-curvature="0" sodipodi:nodetypes="ssaaaaasss"/>
  <path style="fill:red;stroke:#000000;stroke-width:0.80000001px;stroke-linecap:butt;stroke-linejoin:miter;stroke-opacity:1" d="m 34.8 13.5 c 0.2 -0.6 2.2 -0.6 2.1 0.1 -0.3 1.6 -1.6 3.5 -1.9 5.4 -0.3 1.4 -0.2 4.3 -0.2 4.3 l -1.2 0 c 0 0 0.2 -3.5 0.5 -5.3 0.2 -1.5 0.3 -3.1 0.8 -4.6 z" id="path3876" inkscape:connector-curvature="0" sodipodi:nodetypes="ssaccas"/>
</svg>
