<svg xmlns="http://www.w3.org/2000/svg" xmlns:xlink="http://www.w3.org/1999/xlink" version="1.1" id="Layer_10" x="0px" y="0px" width="30px" height="30px" viewBox="0 0 100 100" enable-background="new 0 0 100 100" xml:space="preserve">
<g>
	<path fill="#000000" d="M29.214,62.244V38.338c-2.812,0-7.031,1.815-7.031,4.922v5.625v2.969v4.062   C22.183,59.022,26.401,62.244,29.214,62.244z"/>
	<path fill="#000000" d="M81.092,12.443l-9.69,9.339V20.76v-1.406c0-3.106-1.815-4.922-4.922-4.922L34.839,33.745v1.077v23.521   L14.921,78.616l4.074,3.897l66.084-66.172L81.092,12.443z"/>
	<path fill="#000000" d="M71.401,36.611l-32.626,32.98l27.88,17.965c3.106,0,4.746-3.222,4.746-6.328v-6.875V59.981   c2.812-2.055,2.812-5.309,2.812-8.987s0-6.933-2.812-8.986V36.611z"/>
</g>
</svg>
