<svg xmlns="http://www.w3.org/2000/svg" xmlns:xlink="http://www.w3.org/1999/xlink" version="1.1" baseProfile="tiny" id="&#1057;&#1083;&#1086;&#1081;_1" x="0px" y="0px" width="30px" height="30px" viewBox="0 0 90 90" xml:space="preserve">
<polyline points="47.4314,72.4634 47.4314,16.8433 22.4314,33.4634 22.4314,33.4634 5.4314,33.4634 5.4314,56.4634 22.4314,56.4634   "/>
<path d="M73.2575,18.4463L72.42,17.6567l-4.4456,4.19l0.8375,0.7896c13.1713,12.4173,13.1713,32.6235,0,45.0409l-0.8375,0.7896  l4.4456,4.19l0.8375-0.7896C88.88,57.1389,88.88,33.1745,73.2575,18.4463z"/>
<path d="M60.158,28.4928l-0.9241-0.8361l-4.4418,4.0187l0.9241,0.8361c3.7271,3.3721,5.7795,7.8631,5.7795,12.6452  c0,4.7832-2.0524,9.2743-5.7795,12.6463l-0.9241,0.8361l4.4418,4.0176l0.9241-0.8361c4.923-4.4529,7.6341-10.3702,7.6341-16.6639  S65.0811,32.9457,60.158,28.4928z"/>
</svg>
